<svg xmlns="http://www.w3.org/2000/svg" viewBox="0 0 16 16" width="64" height="64" shape-rendering="crispEdges">
  <rect width="16" height="16" fill="none"/>
  <rect x="5" y="1" width="6" height="5" fill="#0b1528"/>
  <rect x="5" y="1" width="6" height="1" fill="#475569"/>
  <rect x="6" y="2" width="4" height="3" fill="#e8b89a"/>
  <rect x="6" y="2" width="2" height="1" fill="#f5d5c0"/>
  <rect x="7" y="4" width="1" height="1" fill="#0b1528"/>
  <rect x="9" y="4" width="1" height="1" fill="#0b1528"/>
  <rect x="4" y="6" width="8" height="5" fill="#0b1528"/>
  <rect x="5" y="7" width="6" height="3" fill="#3b82f6"/>
  <rect x="5" y="7" width="3" height="1" fill="#93c5fd"/>
  <rect x="2" y="7" width="2" height="4" fill="#0b1528"/>
  <rect x="3" y="8" width="1" height="3" fill="#e8b89a"/>
  <rect x="12" y="7" width="2" height="4" fill="#0b1528"/>
  <rect x="13" y="8" width="1" height="3" fill="#e8b89a"/>
  <rect x="5" y="11" width="3" height="4" fill="#0b1528"/>
  <rect x="6" y="12" width="1" height="3" fill="#3b82f6"/>
  <rect x="8" y="11" width="3" height="4" fill="#0b1528"/>
  <rect x="9" y="12" width="1" height="3" fill="#3b82f6"/>
</svg>
