<svg xmlns="http://www.w3.org/2000/svg" viewBox="0 0 16 16" width="64" height="64" shape-rendering="crispEdges">
  <rect width="16" height="16" fill="none"/>
  <rect x="1" y="4" width="14" height="9" fill="#0b1528"/>
  <rect x="2" y="5" width="12" height="7" fill="#f8fafc"/>
  <rect x="2" y="5" width="6" height="1" fill="#cbd5e1"/>
  <rect x="2" y="6" width="1" height="1" fill="#0b1528"/>
  <rect x="3" y="7" width="1" height="1" fill="#0b1528"/>
  <rect x="4" y="8" width="1" height="1" fill="#0b1528"/>
  <rect x="5" y="9" width="1" height="1" fill="#0b1528"/>
  <rect x="6" y="10" width="2" height="1" fill="#0b1528"/>
  <rect x="12" y="6" width="1" height="1" fill="#0b1528"/>
  <rect x="11" y="7" width="1" height="1" fill="#0b1528"/>
  <rect x="10" y="8" width="1" height="1" fill="#0b1528"/>
  <rect x="9" y="9" width="1" height="1" fill="#0b1528"/>
  <rect x="8" y="10" width="2" height="1" fill="#0b1528"/>
  <rect x="3" y="11" width="10" height="1" fill="#94a3b8"/>
</svg>
