<svg xmlns="http://www.w3.org/2000/svg" viewBox="0 0 16 16" width="64" height="64" shape-rendering="crispEdges">
  <rect width="16" height="16" fill="none"/>
  <rect x="7" y="1" width="3" height="1" fill="#0b1528"/>
  <rect x="8" y="1" width="1" height="1" fill="#fbbf24"/>
  <rect x="8" y="1" width="1" height="1" fill="#fde68a"/>
  <rect x="6" y="2" width="5" height="1" fill="#0b1528"/>
  <rect x="7" y="2" width="3" height="1" fill="#fbbf24"/>
  <rect x="7" y="2" width="1" height="1" fill="#fde68a"/>
  <rect x="5" y="3" width="7" height="1" fill="#0b1528"/>
  <rect x="6" y="3" width="5" height="1" fill="#fbbf24"/>
  <rect x="6" y="3" width="1" height="1" fill="#fde68a"/>
  <rect x="4" y="4" width="9" height="1" fill="#0b1528"/>
  <rect x="5" y="4" width="7" height="1" fill="#fbbf24"/>
  <rect x="5" y="4" width="1" height="1" fill="#fde68a"/>
  <rect x="3" y="5" width="11" height="1" fill="#0b1528"/>
  <rect x="4" y="5" width="9" height="1" fill="#fbbf24"/>
  <rect x="4" y="5" width="1" height="1" fill="#fde68a"/>
  <rect x="2" y="6" width="13" height="1" fill="#0b1528"/>
  <rect x="3" y="6" width="11" height="1" fill="#fbbf24"/>
  <rect x="3" y="6" width="1" height="1" fill="#fde68a"/>
  <rect x="2" y="7" width="12" height="8" fill="#0b1528"/>
  <rect x="3" y="8" width="10" height="6" fill="#a0522d"/>
  <rect x="3" y="9" width="3" height="3" fill="#0b1528"/>
  <rect x="4" y="10" width="2" height="2" fill="#fde68a"/>
  <rect x="10" y="9" width="3" height="3" fill="#0b1528"/>
  <rect x="11" y="10" width="2" height="2" fill="#fde68a"/>
  <rect x="6" y="9" width="4" height="6" fill="#0b1528"/>
  <rect x="7" y="10" width="2" height="4" fill="#3b82f6"/>
  <rect x="7" y="12" width="1" height="1" fill="#fbbf24"/>
</svg>
