<svg xmlns="http://www.w3.org/2000/svg" viewBox="0 0 16 16" width="64" height="64" shape-rendering="crispEdges">
  <rect width="16" height="16" fill="none"/>
  <rect x="1" y="4" width="14" height="8" fill="#0b1528"/>
  <rect x="2" y="4" width="12" height="2" fill="#fbbf24"/>
  <rect x="2" y="4" width="5" height="1" fill="#fde68a"/>
  <rect x="2" y="6" width="12" height="5" fill="#f8fafc"/>
  <rect x="4" y="6" width="1" height="5" fill="#0b1528"/>
  <rect x="7" y="6" width="1" height="5" fill="#0b1528"/>
  <rect x="10" y="6" width="1" height="5" fill="#0b1528"/>
  <rect x="3" y="6" width="1" height="3" fill="#0b1528"/>
  <rect x="6" y="6" width="1" height="3" fill="#0b1528"/>
  <rect x="9" y="6" width="1" height="3" fill="#0b1528"/>
  <rect x="12" y="6" width="1" height="3" fill="#0b1528"/>
  <rect x="5" y="2" width="1" height="2" fill="#22d3ee"/>
  <rect x="8" y="1" width="1" height="3" fill="#22d3ee"/>
  <rect x="11" y="2" width="1" height="2" fill="#22d3ee"/>
</svg>
