<svg xmlns="http://www.w3.org/2000/svg" viewBox="0 0 16 16" width="64" height="64" shape-rendering="crispEdges">
  <rect width="16" height="16" fill="none"/>
  <rect x="7" y="0" width="2" height="2" fill="#0b1528"/>
  <rect x="7" y="0" width="2" height="1" fill="#fbbf24"/>
  <rect x="3" y="2" width="10" height="5" fill="#0b1528"/>
  <rect x="4" y="3" width="8" height="3" fill="#475569"/>
  <rect x="4" y="3" width="4" height="1" fill="#cbd5e1"/>
  <rect x="5" y="4" width="2" height="1" fill="#22d3ee"/>
  <rect x="9" y="4" width="2" height="1" fill="#22d3ee"/>
  <rect x="6" y="6" width="4" height="1" fill="#0b1528"/>
  <rect x="4" y="7" width="8" height="5" fill="#0b1528"/>
  <rect x="5" y="8" width="6" height="3" fill="#3b82f6"/>
  <rect x="5" y="8" width="3" height="1" fill="#93c5fd"/>
  <rect x="2" y="8" width="2" height="3" fill="#0b1528"/>
  <rect x="12" y="8" width="2" height="3" fill="#0b1528"/>
  <rect x="2" y="9" width="1" height="2" fill="#e8b89a"/>
  <rect x="13" y="9" width="1" height="2" fill="#e8b89a"/>
  <rect x="5" y="12" width="2" height="3" fill="#0b1528"/>
  <rect x="9" y="12" width="2" height="3" fill="#0b1528"/>
  <rect x="5" y="12" width="1" height="2" fill="#475569"/>
  <rect x="9" y="12" width="1" height="2" fill="#475569"/>
</svg>
