<svg xmlns="http://www.w3.org/2000/svg" viewBox="0 0 16 16" width="64" height="64" shape-rendering="crispEdges">
  <rect width="16" height="16" fill="none"/>
  <rect x="3" y="1" width="10" height="1" fill="#0b1528"/>
  <rect x="2" y="2" width="12" height="1" fill="#0b1528"/>
  <rect x="1" y="3" width="14" height="7" fill="#0b1528"/>
  <rect x="2" y="10" width="12" height="2" fill="#0b1528"/>
  <rect x="4" y="12" width="8" height="1" fill="#0b1528"/>
  <rect x="6" y="13" width="4" height="1" fill="#0b1528"/>
  <rect x="8" y="14" width="1" height="1" fill="#0b1528"/>
  <rect x="2" y="3" width="12" height="7" fill="#3b82f6"/>
  <rect x="3" y="10" width="10" height="2" fill="#3b82f6"/>
  <rect x="5" y="12" width="6" height="1" fill="#3b82f6"/>
  <rect x="7" y="13" width="2" height="1" fill="#3b82f6"/>
  <rect x="2" y="3" width="6" height="3" fill="#93c5fd"/>
  <rect x="5" y="8" width="2" height="2" fill="#f8fafc"/>
  <rect x="7" y="9" width="2" height="1" fill="#f8fafc"/>
  <rect x="7" y="6" width="2" height="3" fill="#f8fafc"/>
</svg>
