<svg xmlns="http://www.w3.org/2000/svg" viewBox="0 0 16 16" width="64" height="64" shape-rendering="crispEdges">
  <rect width="16" height="16" fill="none"/>
  <rect x="1" y="5" width="4" height="6" fill="#0b1528"/>
  <rect x="2" y="6" width="2" height="4" fill="#475569"/>
  <rect x="2" y="6" width="1" height="1" fill="#cbd5e1"/>
  <rect x="5" y="3" width="5" height="10" fill="#0b1528"/>
  <rect x="6" y="4" width="3" height="8" fill="#475569"/>
  <rect x="6" y="4" width="2" height="2" fill="#cbd5e1"/>
  <rect x="7" y="6" width="1" height="4" fill="#22d3ee"/>
  <rect x="10" y="4" width="2" height="1" fill="#0b1528"/>
  <rect x="10" y="10" width="2" height="1" fill="#0b1528"/>
  <rect x="12" y="3" width="2" height="2" fill="#0b1528"/>
  <rect x="12" y="9" width="2" height="2" fill="#0b1528"/>
  <rect x="10" y="5" width="2" height="1" fill="#fbbf24"/>
  <rect x="10" y="9" width="2" height="1" fill="#fbbf24"/>
  <rect x="12" y="4" width="1" height="1" fill="#fde68a"/>
  <rect x="12" y="9" width="1" height="1" fill="#fde68a"/>
</svg>
