<svg xmlns="http://www.w3.org/2000/svg" viewBox="0 0 16 16" width="64" height="64" shape-rendering="crispEdges">
  <rect width="16" height="16" fill="none"/>
  <rect x="1" y="3" width="6" height="10" fill="#0b1528"/>
  <rect x="9" y="3" width="6" height="10" fill="#0b1528"/>
  <rect x="7" y="2" width="2" height="12" fill="#0b1528"/>
  <rect x="2" y="4" width="4" height="8" fill="#fef3c7"/>
  <rect x="10" y="4" width="4" height="8" fill="#fef3c7"/>
  <rect x="2" y="4" width="3" height="1" fill="#f8fafc"/>
  <rect x="10" y="4" width="3" height="1" fill="#f8fafc"/>
  <rect x="6" y="4" width="1" height="8" fill="#94a3b8"/>
  <rect x="9" y="4" width="1" height="8" fill="#94a3b8"/>
  <rect x="3" y="6" width="2" height="1" fill="#93c5fd"/>
  <rect x="3" y="8" width="2" height="1" fill="#93c5fd"/>
  <rect x="11" y="6" width="2" height="1" fill="#93c5fd"/>
  <rect x="11" y="8" width="2" height="1" fill="#93c5fd"/>
  <rect x="7" y="4" width="1" height="8" fill="#6b3a1f"/>
  <rect x="8" y="4" width="1" height="8" fill="#6b3a1f"/>
  <rect x="7" y="13" width="2" height="1" fill="#fbbf24"/>
</svg>
