<svg xmlns="http://www.w3.org/2000/svg" viewBox="0 0 16 16" width="64" height="64" shape-rendering="crispEdges">
  <rect width="16" height="16" fill="none"/>
  <rect x="7" y="0" width="2" height="1" fill="#0b1528"/>
  <rect x="6" y="1" width="4" height="1" fill="#0b1528"/>
  <rect x="5" y="2" width="6" height="1" fill="#0b1528"/>
  <rect x="4" y="3" width="8" height="1" fill="#0b1528"/>
  <rect x="3" y="4" width="10" height="1" fill="#0b1528"/>
  <rect x="2" y="5" width="12" height="1" fill="#0b1528"/>
  <rect x="1" y="6" width="14" height="1" fill="#0b1528"/>
  <rect x="0" y="7" width="16" height="1" fill="#0b1528"/>
  <rect x="0" y="8" width="16" height="3" fill="#0b1528"/>
  <rect x="7" y="1" width="2" height="1" fill="#fbbf24"/>
  <rect x="6" y="2" width="4" height="1" fill="#fbbf24"/>
  <rect x="5" y="3" width="6" height="1" fill="#fbbf24"/>
  <rect x="4" y="4" width="8" height="1" fill="#fbbf24"/>
  <rect x="3" y="5" width="10" height="1" fill="#fbbf24"/>
  <rect x="2" y="6" width="12" height="1" fill="#fbbf24"/>
  <rect x="1" y="7" width="14" height="1" fill="#fbbf24"/>
  <rect x="1" y="8" width="14" height="3" fill="#fbbf24"/>
  <rect x="7" y="3" width="2" height="4" fill="#0b1528"/>
  <rect x="7" y="9" width="2" height="2" fill="#0b1528"/>
</svg>
