<svg xmlns="http://www.w3.org/2000/svg" viewBox="0 0 16 16" width="64" height="64" shape-rendering="crispEdges">
  <!-- DOROLAND ray: simple sky-blue manta sprite without a bright outer outline -->
  <rect x="6" y="2" width="4" height="1" fill="#A5F3FC"/>
  <rect x="4" y="3" width="8" height="1" fill="#67E8F9"/>
  <rect x="2" y="4" width="12" height="1" fill="#38BDF8"/>
  <rect x="1" y="5" width="14" height="1" fill="#38BDF8"/>
  <rect x="2" y="6" width="12" height="1" fill="#22D3EE"/>
  <rect x="3" y="7" width="10" height="1" fill="#22D3EE"/>
  <rect x="5" y="8" width="6" height="1" fill="#67E8F9"/>
  <rect x="7" y="9" width="3" height="1" fill="#38BDF8"/>
  <rect x="8" y="10" width="2" height="2" fill="#22D3EE"/>
  <rect x="9" y="12" width="1" height="2" fill="#22D3EE"/>

  <rect x="6" y="3" width="4" height="1" fill="#CFFAFE"/>
  <rect x="5" y="4" width="6" height="1" fill="#A5F3FC"/>
  <rect x="5" y="5" width="2" height="1" fill="#A5F3FC"/>
  <rect x="9" y="5" width="2" height="1" fill="#A5F3FC"/>
  <rect x="7" y="8" width="2" height="1" fill="#A5F3FC"/>

  <rect x="5" y="5" width="2" height="2" fill="#0B1528"/>
  <rect x="10" y="5" width="2" height="2" fill="#0B1528"/>
  <rect x="5" y="5" width="1" height="1" fill="#F8FBFF"/>
  <rect x="10" y="5" width="1" height="1" fill="#F8FBFF"/>
  <rect x="7" y="7" width="2" height="1" fill="#0E7490"/>
  <rect x="9" y="8" width="1" height="1" fill="#F9A8D4"/>
</svg>
