<svg xmlns="http://www.w3.org/2000/svg" viewBox="0 0 16 16" width="64" height="64" shape-rendering="crispEdges">
  <rect width="16" height="16" fill="none"/>
      <rect x="5" y="2" width="6" height="2" fill="#0b1528"/>
      <rect x="4" y="4" width="8" height="5" fill="#0b1528"/>
      <rect x="5" y="5" width="6" height="4" fill="#fef3c7"/>
      <rect x="3" y="3" width="10" height="2" fill="#0b1528"/>
      <rect x="4" y="3" width="8" height="1" fill="#8b5cf6"/>
      <rect x="7" y="1" width="2" height="2" fill="#0b1528"/>
      <rect x="6" y="6" width="1" height="1" fill="#0b1528"/>
      <rect x="9" y="6" width="1" height="1" fill="#0b1528"/>
      <rect x="7" y="8" width="2" height="1" fill="#fb7185"/>
      <rect x="3" y="9" width="10" height="5" fill="#0b1528"/>
      <rect x="4" y="10" width="8" height="3" fill="#2dd4bf"/>
      <rect x="6" y="10" width="4" height="1" fill="#a7f3d0"/>
      <rect x="2" y="11" width="2" height="2" fill="#8b5cf6"/>
      <rect x="12" y="11" width="2" height="2" fill="#8b5cf6"/>
</svg>
